@startuml
hide empty members

' qualified name: "Ecore"


class EAnnotation extends EModelElement {
  source: String
}

class EAttribute extends EStructuralFeature

class EClass extends EClassifier {
  abstract: Boolean
  interface: Boolean
}

abstract class EClassifier extends ENamedElement

class EDataType extends EClassifier

class EEnum extends EDataType

class EEnumLiteral extends ENamedElement {
  value: String
}

abstract class EModelElement extends EObject

abstract class ENamedElement extends EModelElement implements INamed

class EObject {
  idXmi: String?
}

class EPackage extends ENamedElement {
  nsURI: String
  nsPrefix: String
}

class EReference extends EStructuralFeature {
  containmentXsi: Boolean
}

class EStringToStringMapEntry {
  key: String
  value: String
}

abstract class EStructuralFeature extends ETypedElement

abstract class ETypedElement extends ENamedElement {
  lowerBound: Integer
  upperBound: Integer?
}



' relations:

EAnnotation "1" o--> "*" EStringToStringMapEntry: details

EClass "1" o--> "*" EStructuralFeature: eStructuralFeatures
EClass "*" --> "*" EClass: eSuperTypes


EEnum "1" o--> "*" EEnumLiteral: eLiterals

EModelElement "1" o--> "*" EAnnotation: eAnnotations


EPackage "1" o--> "*" EClassifier: eClassifiers
EPackage "1" o--> "*" EPackage: eSubPackages



ETypedElement "*" --> "0..1" EClassifier: eType

@enduml
